<?xml version="1.0" standalone="no"?>
<!DOCTYPE svg PUBLIC "-//W3C//DTD SVG 20010904//EN"
 "http://www.w3.org/TR/2001/REC-SVG-20010904/DTD/svg10.dtd">
<svg version="1.0" xmlns="http://www.w3.org/2000/svg"
 width="559.000000pt" height="559.000000pt" viewBox="0 0 559.000000 559.000000"
 preserveAspectRatio="xMidYMid meet">
<metadata>
Created by potrace 1.14, written by Peter Selinger 2001-2017
</metadata>
<g transform="translate(0.000000,559.000000) scale(0.100000,-0.100000)"
fill="#000000" stroke="none">
<path d="M10 2795 l0 -2785 2785 0 2785 0 0 2785 0 2785 -2785 0 -2785 0 0
-2785z m2620 -15 l0 -1320 -295 0 -295 0 0 665 c0 525 -3 665 -12 666 -10 0
-10 2 0 6 9 3 12 57 12 219 0 118 -3 214 -7 214 -20 1 -943 -204 -943 -209 0
-3 117 -80 259 -171 143 -91 258 -167 256 -168 -2 -2 -123 73 -269 167 -146
94 -273 171 -281 171 -8 0 -15 6 -15 13 0 7 -22 165 -50 352 -27 187 -47 342
-44 345 6 5 1638 367 1667 369 16 1 17 -68 17 -1319z m1165 1139 c457 -100
833 -185 837 -188 4 -3 -15 -159 -42 -346 -28 -187 -50 -346 -50 -352 0 -7 -7
-13 -15 -13 -9 0 -28 -7 -43 -16 -24 -15 -25 -15 -8 0 11 9 18 18 15 20 -5 4
-924 206 -939 206 -16 0 -14 -430 3 -431 10 0 10 -2 0 -6 -10 -4 -13 -147 -13
-669 l0 -664 -295 0 -295 0 0 1320 c0 726 3 1320 8 1320 4 0 381 -82 837 -181z
m606 -968 c-31 -23 -90 -57 -76 -44 13 14 88 63 95 63 3 0 -6 -9 -19 -19z
m-140 -90 c-31 -23 -90 -57 -76 -44 13 14 88 63 95 63 3 0 -6 -9 -19 -19z
m-2254 -77 c-3 -3 -12 -4 -19 -1 -8 3 -5 6 6 6 11 1 17 -2 13 -5z m1590 0 c-3
-3 -12 -4 -19 -1 -8 3 -5 6 6 6 11 1 17 -2 13 -5z m524 -13 c-31 -23 -90 -57
-76 -44 13 14 88 63 95 63 3 0 -6 -9 -19 -19z m-2154 3 c-3 -3 -12 -4 -19 -1
-8 3 -5 6 6 6 11 1 17 -2 13 -5z m1670 0 c-3 -3 -12 -4 -19 -1 -8 3 -5 6 6 6
11 1 17 -2 13 -5z m-1710 -10 c-3 -3 -12 -4 -19 -1 -8 3 -5 6 6 6 11 1 17 -2
13 -5z m1750 0 c-3 -3 -12 -4 -19 -1 -8 3 -5 6 6 6 11 1 17 -2 13 -5z m-1790
-10 c-3 -3 -12 -4 -19 -1 -8 3 -5 6 6 6 11 1 17 -2 13 -5z m1830 0 c-3 -3 -12
-4 -19 -1 -8 3 -5 6 6 6 11 1 17 -2 13 -5z m-1870 -10 c-3 -3 -12 -4 -19 -1
-8 3 -5 6 6 6 11 1 17 -2 13 -5z m1910 0 c-3 -3 -12 -4 -19 -1 -8 3 -5 6 6 6
11 1 17 -2 13 -5z m-1950 -10 c-3 -3 -12 -4 -19 -1 -8 3 -5 6 6 6 11 1 17 -2
13 -5z m1990 0 c-3 -3 -12 -4 -19 -1 -8 3 -5 6 6 6 11 1 17 -2 13 -5z m-2030
-10 c-3 -3 -12 -4 -19 -1 -8 3 -5 6 6 6 11 1 17 -2 13 -5z m2070 0 c-3 -3 -12
-4 -19 -1 -8 3 -5 6 6 6 11 1 17 -2 13 -5z m-2110 -10 c-3 -3 -12 -4 -19 -1
-8 3 -5 6 6 6 11 1 17 -2 13 -5z m2150 0 c-3 -3 -12 -4 -19 -1 -8 3 -5 6 6 6
11 1 17 -2 13 -5z m-2190 -10 c-3 -3 -12 -4 -19 -1 -8 3 -5 6 6 6 11 1 17 -2
13 -5z m2230 0 c-3 -3 -12 -4 -19 -1 -8 3 -5 6 6 6 11 1 17 -2 13 -5z m-2270
-10 c-3 -3 -12 -4 -19 -1 -8 3 -5 6 6 6 11 1 17 -2 13 -5z m2310 0 c-3 -3 -12
-4 -19 -1 -8 3 -5 6 6 6 11 1 17 -2 13 -5z m38 -4 c-3 -5 -12 -10 -18 -10 -7
0 -6 4 3 10 19 12 23 12 15 0z"/>
<path d="M1760 3903 c-437 -96 -798 -178 -802 -181 -6 -7 85 -644 97 -675 4
-10 14 -16 24 -13 9 3 227 51 486 107 259 56 472 104 474 105 18 16 -63 0
-483 -92 -264 -58 -483 -103 -488 -102 -6 2 327 77 739 167 411 90 758 168
771 172 l22 9 0 340 0 340 -22 -1 c-13 0 -381 -80 -818 -176z"/>
<path d="M2318 3322 l-248 -55 0 -889 0 -888 265 0 265 0 0 945 c0 894 -1 945
-17 944 -10 -1 -129 -26 -265 -57z"/>
<path d="M2054 3035 c0 -126 2 -177 3 -112 2 65 2 168 0 230 -1 62 -3 9 -3
-118z"/>
<path d="M2610 2355 l0 -875 -275 0 -275 0 -3 658 -2 657 -3 -662 -2 -663 285
0 285 0 0 880 c0 484 -2 880 -5 880 -3 0 -5 -394 -5 -875z"/>
<path d="M2980 3740 l0 -340 23 -9 c12 -4 359 -82 772 -172 412 -90 743 -165
735 -166 -8 -2 -229 44 -490 102 -416 91 -497 107 -479 92 2 -2 216 -50 474
-106 259 -56 477 -104 486 -107 10 -3 20 3 24 13 12 31 103 668 96 675 -6 6
-1603 358 -1627 358 -12 0 -14 -55 -14 -340z"/>
<path d="M2980 2435 l0 -945 265 0 265 0 0 888 0 889 -258 56 c-142 32 -261
57 -265 57 -4 0 -7 -425 -7 -945z"/>
<path d="M3524 3035 c0 -126 2 -177 3 -112 2 65 2 168 0 230 -1 62 -3 9 -3
-118z"/>
<path d="M2962 2353 l-2 -883 285 0 285 0 -2 663 -3 662 -2 -657 -3 -658 -275
0 -275 0 -3 878 -2 877 -3 -882z"/>
</g>
</svg>
